<svg version="1.1" xmlns="http://www.w3.org/2000/svg" viewBox="-272.38399810791014 -1080.3200561523438 4026.36826171875 2742.272180175781"><desc>Created with Snap</desc><defs></defs><g><g><g transform="matrix(1.024,0,0,-1.024,0,0)"><path d="M245 -18Q182 -18 134 4Q86 26 60 65Q34 105 34 157Q34 201 52 237Q71 273 102 294Q134 315 172 315Q207 315 231 297Q255 280 261 249Q209 249 178 221Q147 194 147 147Q147 104 173 78Q199 52 242 52Q295 52 329 87Q364 123 364 177Q364 224 338 266Q312 308 260 368Q206 430 178 474Q151 519 151 572Q151 624 180 665Q209 707 260 731Q311 755 375 755Q456 755 504 717Q553 679 553 615Q553 573 532 547Q511 521 477 521Q439 521 416 552Q435 566 446 589Q457 612 457 637Q457 669 438 688Q419 707 386 707Q346 707 320 678Q295 650 295 606Q295 566 318 531Q341 497 390 443Q430 400 454 369Q479 338 496 297Q514 257 514 210Q514 146 478 94Q443 42 381 12Q320 -18 245 -18ZM669 -6Q621 -6 591 24Q562 54 562 114Q562 139 570 179L638 500L782 500L710 160Q707 145 707 132Q707 91 737 91Q765 91 785 114Q805 138 817 179L885 500L1029 500L957 160Q953 145 953 128Q953 108 962 99Q972 91 994 91Q1022 91 1042 115Q1063 139 1075 179L1117 179Q1080 71 1025 32Q971 -6 916 -6Q873 -6 847 18Q822 42 817 89Q783 34 745 14Q708 -6 669 -6ZM1208 -6Q1140 -6 1104 27Q1068 61 1068 122Q1068 152 1075 179L1182 680L1330 700L1282 475Q1310 492 1328 497Q1346 503 1364 503Q1482 503 1482 332Q1482 263 1455 184Q1429 106 1367 50Q1306 -6 1208 -6ZM1264 91Q1295 91 1322 129Q1349 168 1365 225Q1381 283 1381 336Q1381 376 1367 404Q1353 432 1328 432Q1313 432 1294 427Q1276 423 1269 414L1214 160Q1211 148 1211 137Q1211 91 1264 91ZM1880 -6Q1819 -6 1790 26Q1762 59 1762 107Q1762 128 1767 154Q1772 181 1777 206Q1783 231 1785 238Q1793 273 1800 307Q1807 341 1807 362Q1807 413 1771 413Q1745 413 1725 387Q1705 362 1693 321L1625 0L1481 0L1626 680L1774 700L1720 448Q1770 504 1837 504Q1888 504 1918 476Q1948 448 1948 391Q1948 362 1941 326Q1934 291 1921 240Q1913 209 1906 179Q1900 150 1900 133Q1900 113 1909 102Q1918 91 1940 91Q1970 91 1988 112Q2006 134 2024 179L2066 179Q2029 69 1980 31Q1932 -6 1880 -6ZM2144 -6Q2087 -6 2049 33Q2011 72 2011 155Q2011 229 2040 310Q2070 392 2128 448Q2187 505 2268 505Q2309 505 2329 491Q2349 477 2349 454L2349 447L2360 500L2504 500L2432 160Q2428 145 2428 128Q2428 85 2469 85Q2497 85 2517 111Q2538 137 2550 179L2592 179Q2555 71 2500 32Q2446 -6 2391 -6Q2349 -6 2323 17Q2298 41 2293 86Q2264 45 2228 19Q2193 -6 2144 -6ZM2209 91Q2234 91 2258 114Q2283 138 2292 179L2340 405Q2340 418 2330 430Q2320 443 2299 443Q2259 443 2227 396Q2195 350 2177 284Q2159 219 2159 169Q2159 119 2173 105Q2188 91 2209 91ZM2709 555Q2676 555 2653 578Q2630 601 2630 634Q2630 667 2653 690Q2676 714 2709 714Q2742 714 2765 690Q2789 667 2789 634Q2789 601 2765 578Q2742 555 2709 555ZM2460 -250Q2412 -250 2380 -225Q2348 -200 2348 -153Q2348 -56 2512 -4L2619 500L2763 500L2664 36Q2712 52 2741 84Q2770 116 2790 179L2832 179Q2805 90 2759 48Q2713 7 2655 -8L2640 -80Q2620 -177 2571 -214Q2522 -250 2460 -250ZM2437 -172Q2454 -172 2470 -149Q2486 -126 2495 -83L2501 -54Q2403 -90 2403 -139Q2403 -152 2412 -162Q2421 -172 2437 -172ZM2957 554Q2924 554 2901 577Q2878 600 2878 633Q2878 666 2901 689Q2924 713 2957 713Q2990 713 3013 689Q3037 666 3037 633Q3037 600 3013 577Q2990 554 2957 554ZM2889 -6Q2841 -6 2811 24Q2782 54 2782 114Q2782 139 2790 179L2858 500L3002 500L2930 160Q2926 145 2926 128Q2926 108 2935 99Q2945 91 2967 91Q2996 91 3021 115Q3046 140 3057 179L3099 179Q3062 71 3004 32Q2946 -6 2889 -6ZM3156 -6Q3108 -6 3078 24Q3049 54 3049 114Q3049 139 3057 179L3117 460L3084 460L3092 500L3125 500L3155 638L3303 658L3269 500L3329 500L3321 460L3261 460L3197 160Q3193 145 3193 128Q3193 108 3202 99Q3212 91 3234 91Q3263 91 3288 115Q3313 140 3324 179L3366 179Q3329 71 3271 32Q3213 -6 3156 -6Z" fill="#6daedb" style=""></path></g></g><g transform="matrix(1,0,0,1,0,1336.3201)"><g transform="matrix(1.024,0,0,-1.024,0,0)"><path d="M245 -18Q182 -18 134 4Q86 26 60 65Q34 105 34 157Q34 201 52 237Q71 273 102 294Q134 315 172 315Q207 315 231 297Q255 280 261 249Q209 249 178 221Q147 194 147 147Q147 104 173 78Q199 52 242 52Q295 52 329 87Q364 123 364 177Q364 224 338 266Q312 308 260 368Q206 430 178 474Q151 519 151 572Q151 624 180 665Q209 707 260 731Q311 755 375 755Q456 755 504 717Q553 679 553 615Q553 573 532 547Q511 521 477 521Q439 521 416 552Q435 566 446 589Q457 612 457 637Q457 669 438 688Q419 707 386 707Q346 707 320 678Q295 650 295 606Q295 566 318 531Q341 497 390 443Q430 400 454 369Q479 338 496 297Q514 257 514 210Q514 146 478 94Q443 42 381 12Q320 -18 245 -18ZM690 -6Q633 -6 595 33Q557 72 557 155Q557 229 586 310Q616 392 674 448Q733 505 814 505Q855 505 875 491Q895 477 895 454L895 447L906 500L1050 500L978 160Q974 145 974 128Q974 85 1015 85Q1043 85 1063 111Q1084 137 1096 179L1138 179Q1101 71 1046 32Q992 -6 937 -6Q895 -6 869 17Q844 41 839 86Q810 45 774 19Q739 -6 690 -6ZM755 91Q780 91 804 114Q829 138 838 179L886 405Q886 418 876 430Q866 443 845 443Q805 443 773 396Q741 350 723 284Q705 219 705 169Q705 119 719 105Q734 91 755 91ZM1457 -6Q1396 -6 1367 26Q1339 59 1339 107Q1339 128 1344 154Q1349 181 1354 206Q1360 231 1362 238Q1370 273 1377 307Q1384 341 1384 362Q1384 413 1348 413Q1322 413 1302 387Q1282 362 1270 321L1202 0L1058 0L1203 680L1351 700L1297 448Q1347 504 1414 504Q1465 504 1495 476Q1525 448 1525 391Q1525 362 1518 326Q1511 291 1498 240Q1490 209 1483 179Q1477 150 1477 133Q1477 113 1486 102Q1495 91 1517 91Q1547 91 1565 112Q1583 134 1601 179L1643 179Q1606 69 1557 31Q1509 -6 1457 -6ZM1721 -6Q1664 -6 1626 33Q1588 72 1588 155Q1588 229 1617 310Q1647 392 1705 448Q1764 505 1845 505Q1886 505 1906 491Q1926 477 1926 454L1926 447L1937 500L2081 500L2009 160Q2005 145 2005 128Q2005 85 2046 85Q2074 85 2094 111Q2115 137 2127 179L2169 179Q2132 71 2077 32Q2023 -6 1968 -6Q1926 -6 1900 17Q1875 41 1870 86Q1841 45 1805 19Q1770 -6 1721 -6ZM1786 91Q1811 91 1835 114Q1860 138 1869 179L1917 405Q1917 418 1907 430Q1897 443 1876 443Q1836 443 1804 396Q1772 350 1754 284Q1736 219 1736 169Q1736 119 1750 105Q1765 91 1786 91Z" fill="#6daedb" style=""></path></g></g></g></svg>